<svg xmlns="http://www.w3.org/2000/svg" width="135" height="163" viewBox="0 0 135 163"><g transform="translate(-418 -1668)"><g transform="translate(418 1668)" fill="#e8dfc6" stroke="#112426" stroke-width="1" stroke-dasharray="4"><rect width="135" height="163" stroke="none"/><rect x="0.5" y="0.5" width="134" height="162" fill="none"/></g><g transform="translate(448.879 1712.131)"><path d="M82.043,17.979h0A7.472,7.472,0,0,0,75.432,14H28.358a7.5,7.5,0,0,0-6.6,3.958l-4.484,8.411a7.435,7.435,0,0,0-.874,3.516V81.264a7.475,7.475,0,0,0,7.474,7.474H79.927A7.475,7.475,0,0,0,87.4,81.264V29.884c0-.484,0-1.368-5.358-11.905Zm-56.3,3.495a3.738,3.738,0,0,1,3.737-3.737H74.327a3.738,3.738,0,0,1,3.737,3.737V66.316a3.738,3.738,0,0,1-3.737,3.737H29.484a3.738,3.738,0,0,1-3.737-3.737Zm1.684,62.59h0L26.495,85H23.884a3.738,3.738,0,0,1-3.737-3.737V29.884a3.807,3.807,0,0,1,.432-1.758l3.305-6.19V66.316a5.6,5.6,0,0,0,5.6,5.6H28.2a3.72,3.72,0,0,0-1.863.505L25.011,73.79a3.339,3.339,0,0,0-.242.379l-2.126,5.011h0l-.221.537a3.786,3.786,0,0,0-.284,1.368l1.137-1.137h0l8.053-8.011h2l-9.063,8.99h0L22.4,82.79a3.733,3.733,0,0,0,2.358,2.095l1.716-1.737h0L37.684,71.937h1.863L27.495,84.022l-.053.053Zm56.232-2.8A3.738,3.738,0,0,1,79.927,85H78.064a3.738,3.738,0,0,0,3.8-3.674,4.6,4.6,0,0,0-.063-.758L77.222,85H75.358l5.832-5.832-1.326-3.105L70.9,84.99H69.032L79.306,74.716l-.221-.537a3.735,3.735,0,0,0-1.863-1.863L65.548,83.99h0l-.863.863H62.821l1.863-1.863h0L75.9,71.779H74.516a5.6,5.6,0,0,0,5.6-5.6V22.074a83.666,83.666,0,0,1,3.737,8l-.168,51.19Z" transform="translate(-16.4 -14)" fill="#112426"/><path d="M79.671,83.016H23.25A3.2,3.2,0,0,1,20.439,78.3l4.8-8.916A3.21,3.21,0,0,1,28.05,67.7H74.871a3.177,3.177,0,0,1,2.811,1.684l4.8,8.916a3.2,3.2,0,0,1-2.811,4.716Z" transform="translate(-16.208 -11.173)" fill="#112426"/><ellipse cx="4.695" cy="4.695" rx="4.695" ry="4.695" transform="translate(22.579 10.716)" fill="#112426"/><ellipse cx="4.695" cy="4.695" rx="4.695" ry="4.695" transform="translate(22.579 24.811)" fill="#112426"/><ellipse cx="4.695" cy="4.695" rx="4.695" ry="4.695" transform="translate(38.232 24.811)" fill="#112426"/><ellipse cx="4.695" cy="4.695" rx="4.695" ry="4.695" transform="translate(22.579 38.895)" fill="#112426"/></g></g></svg>