<svg xmlns="http://www.w3.org/2000/svg" width="135" height="163" viewBox="0 0 135 163"><g transform="translate(-418 -4533)"><g transform="translate(418 4533)" fill="#cbcde7" stroke="#112426" stroke-width="1" stroke-dasharray="4"><rect width="135" height="163" stroke="none"/><rect x="0.5" y="0.5" width="134" height="162" fill="none"/></g><g transform="translate(424.148 4561.46)"><g transform="translate(20 10)"><g transform="translate(0 0)"><path d="M95.952,79.371V62.351a6.8,6.8,0,0,0-6.751-6.78V52.2a6.759,6.759,0,0,0-6.751-6.751H79.074V38.693a5.063,5.063,0,0,0,0-10.127H50.381V17.82A7.828,7.828,0,0,0,42.561,10H31.815a5.063,5.063,0,0,0,0,10.127h8.439V45.954A25.318,25.318,0,1,0,70.577,69.074h22v10.3a8.439,8.439,0,1,0,3.376,0ZM61.973,85.03,51.131,74.189a6.711,6.711,0,0,0,.724-1.739H67.2A21.849,21.849,0,0,1,61.973,85.03ZM23.44,72.45H38.78a6.711,6.711,0,0,0,.724,1.739L28.662,85.03A21.847,21.847,0,0,1,23.44,72.45Zm5.222-15.956L39.5,67.335a6.711,6.711,0,0,0-.724,1.739H23.44A21.848,21.848,0,0,1,28.662,56.494Zm30.923-2.387L48.744,64.948a6.711,6.711,0,0,0-1.739-.724V48.884A21.849,21.849,0,0,1,59.586,54.107Zm7.609,14.967H51.855a6.711,6.711,0,0,0-.724-1.739L61.972,56.494A21.847,21.847,0,0,1,67.195,69.074ZM43.63,48.884v15.34a6.711,6.711,0,0,0-1.739.724L31.049,54.107A21.847,21.847,0,0,1,43.63,48.884ZM41.891,76.576a6.711,6.711,0,0,0,1.739.724V92.64a21.848,21.848,0,0,1-12.58-5.222Zm5.114.724a6.71,6.71,0,0,0,1.739-.724L59.586,87.417a21.849,21.849,0,0,1-12.58,5.222ZM75.7,45.444H50.381V38.693H75.7ZM41.942,16.751H31.815a1.688,1.688,0,0,1,0-3.376H42.561a4.449,4.449,0,0,1,4.444,4.444V45.5a24.787,24.787,0,0,0-3.376,0V18.439A1.688,1.688,0,0,0,41.942,16.751ZM70.126,65.7A25.124,25.124,0,0,0,67.7,58.947H89.192a3.411,3.411,0,0,1,3.385,3.4V65.7Z" transform="translate(-20 -10)" fill="#112426"/></g></g></g></g></svg>