<svg xmlns="http://www.w3.org/2000/svg" width="135" height="163" viewBox="0 0 135 163"><g transform="translate(-418 -7861)"><g transform="translate(418 7861)" fill="#e8dfc6" stroke="#112426" stroke-width="1" stroke-dasharray="4"><rect width="135" height="163" stroke="none"/><rect x="0.5" y="0.5" width="134" height="162" fill="none"/></g><path d="M32.222,1.023a31.206,31.206,0,1,1-22.062,9.14,31.106,31.106,0,0,1,22.062-9.14ZM24.754,31.081q2.269-1.766,4.7-3.32a61.467,61.467,0,0,1,8.207-4.4,66.144,66.144,0,0,0-5.751-7.311,42.234,42.234,0,0,1-6.947,6.562,42.242,42.242,0,0,1-4.76,3.091,69.018,69.018,0,0,1,4.549,5.375Zm33.521-9.859a58.154,58.154,0,0,0-16.267,3.521q.444.735.868,1.478A68.246,68.246,0,0,1,47.1,35.045a35.551,35.551,0,0,1,10.889-1.7q.944,0,2.006.06c.159.007.316.017.473.03.017-.4.027-.806.027-1.212a28.2,28.2,0,0,0-2.22-11ZM39.266,25.845a58.2,58.2,0,0,0-8.242,4.372q-2.355,1.5-4.551,3.218.623.9,1.219,1.809a68.266,68.266,0,0,1,4.85,8.809,36,36,0,0,1,3.414-3.068,35.581,35.581,0,0,1,8.411-4.937,65.006,65.006,0,0,0-4.024-8.391c-.351-.612-.707-1.217-1.075-1.817ZM24.211,35.294A58.709,58.709,0,0,0,11.266,51.21c.311.343.632.682.961,1.01a28.258,28.258,0,0,0,11.5,6.983,35.515,35.515,0,0,1,6.681-12.771,65.264,65.264,0,0,0-5.166-9.6c-.338-.518-.682-1.033-1.033-1.54Zm21.167,3.5A32.723,32.723,0,0,0,33.8,46.977a67.879,67.879,0,0,1,3.787,13.017,28.121,28.121,0,0,0,11.148-4.813A65.293,65.293,0,0,0,45.38,38.8ZM4.289,27.819a38.857,38.857,0,0,0,10.989-2.926,65.816,65.816,0,0,0-7.818-6.331,28.109,28.109,0,0,0-3.173,9.254Zm13.8-4.275a39.235,39.235,0,0,0,5.134-3.257,39.494,39.494,0,0,0,6.676-6.36,65.66,65.66,0,0,0-9.033-7.6A28.339,28.339,0,0,0,9.006,16.083a68.959,68.959,0,0,1,9.083,7.465Zm13.6-11.955a39.108,39.108,0,0,0,4.128-7.413,28.5,28.5,0,0,0-11.641.936,68.777,68.777,0,0,1,7.513,6.477Z" transform="translate(452.703 7909.063)" fill="#112426"/><g transform="translate(499.295 7898.214) rotate(-40)"><path d="M1.621.3A.942.942,0,0,0,.305.24.924.924,0,0,0,.249,1.556C9.175,11.328,9.156,24.219.23,34.4a.9.9,0,0,0,.094,1.3.922.922,0,0,0,.6.226.931.931,0,0,0,.7-.319C11.073,24.839,11.073,10.651,1.621.3Z" transform="translate(6.979 0)"/><path d="M.294.244A.925.925,0,0,0,.256,1.56C6.007,7.667,5.988,15.2.238,21.705A.92.92,0,0,0,.313,23a.938.938,0,0,0,1.315-.094C8.074,15.617,8.074,7.141,1.609.263A.979.979,0,0,0,.294.244Z" transform="translate(0 6.779)"/></g><g transform="matrix(-0.588, 0.809, -0.809, -0.588, 474.813, 7984.404)"><path d="M1.621.3A.942.942,0,0,0,.305.24.924.924,0,0,0,.249,1.556C9.175,11.328,9.156,24.219.23,34.4a.9.9,0,0,0,.094,1.3.922.922,0,0,0,.6.226.931.931,0,0,0,.7-.319C11.073,24.839,11.073,10.651,1.621.3Z" transform="translate(6.979 0)"/><path d="M.294.244A.925.925,0,0,0,.256,1.56C6.007,7.667,5.988,15.2.238,21.705A.92.92,0,0,0,.313,23a.938.938,0,0,0,1.315-.094C8.074,15.617,8.074,7.141,1.61.263A.979.979,0,0,0,.294.244Z" transform="translate(0 6.779)"/></g></g></svg>