<svg xmlns="http://www.w3.org/2000/svg" width="135" height="163" viewBox="0 0 135 163"><g transform="translate(-418 -3206)"><g transform="translate(418 3206)" fill="#d4e1c3" stroke="#112426" stroke-width="1" stroke-dasharray="4"><rect width="135" height="163" stroke="none"/><rect x="0.5" y="0.5" width="134" height="162" fill="none"/></g><g transform="translate(7368.545 -2926.396)"><g transform="translate(-6917.42 6171)"><path d="M38.489,73.722a21.815,21.815,0,0,0,11.584-6.986L47.6,60.812a16.156,16.156,0,0,1-10.346,7.516,16.364,16.364,0,0,1-14.413-28.3L22.661,33.4A21.9,21.9,0,0,0,38.489,73.722Z" transform="translate(-8.937 -5.172)"/><path d="M37.476,23.4H34.558a5.418,5.418,0,0,0-4.068,1.768A5.591,5.591,0,0,0,28.9,29.324l.354,16.093a5.4,5.4,0,0,0,2.211,4.333,5.744,5.744,0,0,0,4.775,1.061l13-3.006L56.4,65.225A4.011,4.011,0,0,0,61,67.612c.177-.088.442-.088.619-.177a4.077,4.077,0,0,0,2.211-5.217L56.045,43.3A6.15,6.15,0,0,0,49.06,39.67l-5.217,1.061-.265-6.455,1.415.8a3.69,3.69,0,0,0,2.564.354l6.455-1.5A3.683,3.683,0,0,0,56.753,29.5a3.617,3.617,0,0,0-4.421-2.741L47.2,27.91s-5.482-3.095-6.278-3.537A9.5,9.5,0,0,0,37.476,23.4Z" transform="translate(-10.931 -4.015)"/><circle cx="8.135" cy="8.135" r="8.135" transform="matrix(0.993, -0.118, 0.118, 0.993, 15.829, 1.923)"/><path d="M78.719,73.492,10.543,89.674a2.555,2.555,0,0,0,.619,5.04H79.338A2.566,2.566,0,0,0,81.9,92.15V75.968A2.666,2.666,0,0,0,78.719,73.492Z" transform="translate(-8.58 -9.806)"/></g></g></g></svg>