<svg xmlns="http://www.w3.org/2000/svg" width="135" height="163" viewBox="0 0 135 163"><g transform="translate(-418 -2422)"><g transform="translate(418 2422)" fill="#cbcde7" stroke="#112426" stroke-width="1" stroke-dasharray="4"><rect width="135" height="163" stroke="none"/><rect x="0.5" y="0.5" width="134" height="162" fill="none"/></g><g transform="translate(7295 -3534.56)"><g transform="translate(-6843.122 5991.484)"><path d="M39.9,0C25.813,0,14.76,5.061,14.615,11.547a.448.448,0,0,0-.015.145V80.147a8.337,8.337,0,0,0,2.821,6.312c4.886,4.232,14.223,6.617,23.458,6.617,8.828,0,17.568-2.181,22.207-7.039a8.075,8.075,0,0,0,2.123-5.614V11.693a.449.449,0,0,0-.015-.145C65.05,5.061,54,0,39.9,0Zm0,6.312c5.977,0,10.66,2.371,10.66,5.381s-4.683,5.366-10.66,5.366-10.66-2.356-10.66-5.366S33.928,6.312,39.9,6.312Zm23.88,61.75a.5.5,0,0,0-.015.145c0,5.555-10.936,10.238-23.88,10.238S16.04,73.762,16.04,68.207a.5.5,0,0,0-.015-.145V15.634c3.432,4.552,12.7,7.737,23.88,7.737s20.448-3.185,23.88-7.737Z" transform="translate(-14.6)"/><path d="M34.88,13.2c5.439,0,9.22-2.065,9.22-3.927S40.319,5.33,34.88,5.33s-9.22,2.08-9.22,3.941S29.441,13.2,34.88,13.2Z" transform="translate(-9.575 2.421)"/><path d="M1.6.294A.933.933,0,0,0,.3.238a.915.915,0,0,0-.056,1.3C9.083,11.214,9.064,23.976.228,34.059a.9.9,0,0,0,.093,1.284.912.912,0,0,0,.6.223A.922.922,0,0,0,1.6,35.25C10.962,24.59,10.962,10.544,1.6.294Z" transform="translate(66.659 66.673) rotate(180)"/><path d="M.291.242a.916.916,0,0,0-.037,1.3C5.946,7.59,5.928,15.05.235,21.487A.911.911,0,0,0,.31,22.771a.929.929,0,0,0,1.3-.093C7.993,15.46,7.993,7.07,1.593.261A.97.97,0,0,0,.291.242Z" transform="translate(73.568 59.961) rotate(180)"/></g><g transform="translate(-6828.297 6024.536)"><path d="M40.218,22.872a5.5,5.5,0,0,0,5.5-5.5V9.152a5.5,5.5,0,1,0-10.98,0V17.39a5.5,5.5,0,0,0,5.482,5.482Z" transform="translate(-29.238 -3.368)"/><path d="M40.052,30.918A1.377,1.377,0,0,0,38.674,32.3v2.262a8.568,8.568,0,0,1-6.74,8.583,8.255,8.255,0,0,1-9.737-8.1V32.28a1.378,1.378,0,0,0-2.741,0v4.134a8.584,8.584,0,0,0,3.491,7.025,13.659,13.659,0,0,0,5.017,2.276A1.4,1.4,0,0,1,29.1,47.064v3.071a1.378,1.378,0,0,1-1.379,1.378H24.938a1.378,1.378,0,0,0,0,2.741h10.98a1.378,1.378,0,0,0,0-2.741H33.177A1.377,1.377,0,0,1,31.8,50.135V47.05a1.392,1.392,0,0,1,1.123-1.334,10.982,10.982,0,0,0,8.493-10.664V32.28a1.377,1.377,0,0,0-1.364-1.362Z" transform="translate(-19.456 -21.014)"/></g></g></g></svg>