<svg xmlns="http://www.w3.org/2000/svg" width="135" height="163" viewBox="0 0 135 163"><g transform="translate(-418 -3871)"><g transform="translate(418 3871)" fill="#e8dfc6" stroke="#112426" stroke-width="1" stroke-dasharray="4"><rect width="135" height="163" stroke="none"/><rect x="0.5" y="0.5" width="134" height="162" fill="none"/></g><g transform="translate(457.786 3899)"><g transform="translate(0)"><path d="M36.762,53.841h1.562V28.716H32.761v5.167a6.585,6.585,0,1,1-9.36,0V27.153l-6.188-2.632a.913.913,0,0,0-.913.12.877.877,0,0,0-.336.865l4.518,28.334Z" transform="translate(3.215 4.929)"/><path d="M24.15,28.29V34.3a6.38,6.38,0,0,1,4.554,0V14.94H24.15Z" transform="translate(4.869 3.012)"/><path d="M31.3,15.549h4.7C38.734,9.541,38.469,2.559,38.253,0H17.381c-.216,2.559-.481,9.481,2.259,15.549H31.3Z" transform="translate(3.479)"/><path d="M24.817,57.459h9.409V50.91H22.57v6.549Z" transform="translate(4.55 10.263)"/><path d="M26.7,41.033a4.182,4.182,0,1,0-4.17-4.182,4.182,4.182,0,0,0,4.17,4.182Z" transform="translate(4.542 6.586)"/><path d="M28.4,83.9a5.828,5.828,0,1,0-5.828-5.828A5.828,5.828,0,0,0,28.4,83.9Z" transform="translate(4.55 14.564)"/><path d="M30.186,73V58.36H25.44V73a8.255,8.255,0,0,1,4.746,0Z" transform="translate(5.129 11.765)"/><path d="M46.862,84.811c-2.079-4.109-4.7-5.287-6.008-5.611a8.219,8.219,0,0,1-15.621,0l-.9.108a17.471,17.471,0,0,0-7.27,2.535l-3.809,2.4A19.622,19.622,0,0,1,2.716,87.371,2.716,2.716,0,0,0,0,90.063,4.23,4.23,0,0,0,4.23,94.28h7.21a36.589,36.589,0,0,0,12.3-1.8c8.063-2.86,13.29.168,13.506.3,5.011,2.74,8.411,1.622,8.976,1.394A5.491,5.491,0,0,0,48.713,90.5a8.255,8.255,0,0,0-1.742-5.467A.937.937,0,0,1,46.862,84.811Z" transform="translate(0 15.967)"/></g></g></g></svg>