<svg xmlns="http://www.w3.org/2000/svg" width="135" height="163" viewBox="0 0 135 163"><g transform="translate(-418 -7187)"><g transform="translate(418 7187)" fill="#d4e1c3" stroke="#112426" stroke-width="1" stroke-dasharray="4"><rect width="135" height="163" stroke="none"/><rect x="0.5" y="0.5" width="134" height="162" fill="none"/></g><g transform="translate(437.174 7238.177)"><path d="M112.367,23.749a6.362,6.362,0,0,0-3.945-1.259H29.675a9.092,9.092,0,0,0-9.111,9L17.53,52.762V77.174A1.521,1.521,0,0,0,19.052,78.7h7.007a12.1,12.1,0,0,0,22.458,0H83.786a12.1,12.1,0,0,0,22.458,0h7a1.521,1.521,0,0,0,1.522-1.522V28.558a6.086,6.086,0,0,0-2.367-4.818h0Zm-75.094,55.7a5.316,5.316,0,1,1,5.316-5.316A5.323,5.323,0,0,1,37.273,79.447Zm57.718,0a5.316,5.316,0,1,1,5.316-5.316A5.323,5.323,0,0,1,94.991,79.447ZM111.7,52.866V75.652h-4.668a13.488,13.488,0,0,0,.113-1.522,12.154,12.154,0,0,0-24.308,0,11.726,11.726,0,0,0,.113,1.522H78.639V31.6a1.521,1.521,0,0,0-1.522-1.522H56.068A1.521,1.521,0,0,0,54.546,31.6V75.652H49.3a13.485,13.485,0,0,0,.113-1.522,12.154,12.154,0,0,0-24.308,0,11.723,11.723,0,0,0,.113,1.522H20.545V53.927L36,48.31H49.4a1.521,1.521,0,0,0,1.522-1.522V31.6A1.521,1.521,0,0,0,49.4,30.079H37.245v15.2H34.211V30.089H23.795a5.964,5.964,0,0,1,5.861-4.555h78.992a3.047,3.047,0,0,1,3.034,3.034V52.875h0Z" transform="translate(-17.53 -22.49)" fill="#112426"/><g transform="translate(37.097 49.358)"><path d="M62.9,91.961a.946.946,0,0,1-.686-.3.925.925,0,0,1-.254-.7l.385-5.589-4.217-7.946a.936.936,0,0,1,.836-1.371H79.962a.958.958,0,0,1,.836.507l4.368,8.312a.87.87,0,0,1,.1.507l-.432,5.72a.935.935,0,0,1-.939.864H62.9Z" transform="translate(-57.086 -75.101)" fill="#d4e1c3"/><path d="M79.891,76.919l4.368,8.312-.441,5.72H62.825l.4-5.852-4.339-8.181H79.882m.009-1.879H58.9A1.878,1.878,0,0,0,57.246,77.8l4.1,7.711-.376,5.316a1.881,1.881,0,0,0,1.869,2.01H83.827A1.876,1.876,0,0,0,85.7,91.1l.441-5.72a1.9,1.9,0,0,0-.207-1.014l-4.368-8.312A1.882,1.882,0,0,0,79.9,75.049h0Z" transform="translate(-57.026 -75.04)" fill="#112426"/><path d="M84.057,86.219h-22.3a.939.939,0,1,1,0-1.879h22.3a.939.939,0,1,1,0,1.879Z" transform="translate(-55.879 -75.441)" fill="#112426"/></g></g></g></svg>