<svg xmlns="http://www.w3.org/2000/svg" width="135" height="163" viewBox="0 0 135 163"><g transform="translate(-418 -272)"><g transform="translate(418 272)" fill="#cbcde7" stroke="#112426" stroke-width="1" stroke-dasharray="4"><rect width="135" height="163" stroke="none"/><rect x="0.5" y="0.5" width="134" height="162" fill="none"/></g><g transform="translate(437 306.398)"><path d="M34.414,44.1H30.836A13.726,13.726,0,0,1,17.125,30.391V14.4a3.805,3.805,0,0,1,3.8-3.8h.391a3.805,3.805,0,0,1,3.8,3.8V27.747a1.855,1.855,0,0,0,3.711,0l0-13.344a3.8,3.8,0,1,1,7.6,0V27.747a1.855,1.855,0,1,0,3.711,0l0-13.344a3.805,3.805,0,0,1,3.8-3.8h.391a3.805,3.805,0,0,1,3.8,3.8V30.391A13.726,13.726,0,0,1,34.414,44.1Z" fill="#112426"/><path d="M67.223,44.188C58.59,44.188,51.567,38,51.567,30.4c0-7.816,7.012-19.793,15.656-19.793S82.879,22.579,82.879,30.4C82.875,38,75.856,44.188,67.223,44.188Z" fill="#112426"/><path d="M39.637,56.062c-.164-3.086-3.242-5.5-7.016-5.5s-6.852,2.414-7.016,5.5L24.16,83.4a5.105,5.105,0,0,0,1.465,3.777A7.619,7.619,0,0,0,31.176,89.4h2.891a7.619,7.619,0,0,0,5.551-2.223A5.09,5.09,0,0,0,41.082,83.4Zm-7.012,27.8a3.59,3.59,0,1,1,3.59-3.59,3.6,3.6,0,0,1-3.59,3.59Z" fill="#112426"/><path d="M37.184,45.828v3.93a9.271,9.271,0,0,0-9.121,0v-3.93a14.078,14.078,0,0,0,2.77.27H34.41a13.547,13.547,0,0,0,2.773-.27Z" fill="#112426"/><path d="M74.234,56.062c-.164-3.086-3.242-5.5-7.016-5.5s-6.852,2.414-7.016,5.5L58.761,83.4a5.105,5.105,0,0,0,1.465,3.777A7.619,7.619,0,0,0,65.777,89.4h2.891a7.619,7.619,0,0,0,5.551-2.223A5.09,5.09,0,0,0,75.683,83.4Zm-7.012,27.8a3.59,3.59,0,1,1,3.59-3.59A3.6,3.6,0,0,1,67.222,83.863Z" fill="#112426"/><path d="M71.781,45.828v3.93a9.271,9.271,0,0,0-9.121,0v-3.93a14.078,14.078,0,0,0,2.77.27h3.578a13.547,13.547,0,0,0,2.773-.27Z" fill="#112426"/></g></g></svg>