<svg xmlns="http://www.w3.org/2000/svg" width="135" height="163" viewBox="0 0 135 163"><g transform="translate(-418 -5804)"><g transform="translate(418 5804)" fill="#e8dfc6" stroke="#112426" stroke-width="1" stroke-dasharray="4"><rect width="135" height="163" stroke="none"/><rect x="0.5" y="0.5" width="134" height="162" fill="none"/></g><g transform="translate(437.786 5835.499)"><path d="M56.91,24.117C40.875,9.476,14.863,21.683,15.9,43.371A24.613,24.613,0,0,0,41.515,66.734c21.7-.949,31.469-28,15.4-42.617Zm.2,21.207a3.734,3.734,0,0,1-3.734,3.738H47.828a.6.6,0,0,0-.434.184.637.637,0,0,0-.176.441v5.547a3.734,3.734,0,0,1-3.734,3.734H37.312a3.734,3.734,0,0,1-3.734-3.734V49.687a.627.627,0,0,0-.625-.625H27.4a3.734,3.734,0,0,1-3.734-3.738V39.152A3.734,3.734,0,0,1,27.4,35.418h5.551a.6.6,0,0,0,.438-.176.623.623,0,0,0,.188-.434V29.261a3.741,3.741,0,0,1,3.734-3.738h6.172a3.741,3.741,0,0,1,3.734,3.738v5.547a.618.618,0,0,0,.176.434.608.608,0,0,0,.434.176h5.551a3.734,3.734,0,0,1,3.734,3.734Z" fill="#112426"/><path d="M91.9,76.77c-.082-.07-13.77-12.547-13.832-12.613h0a1.6,1.6,0,0,0-2.219.094c.027.02-1.426,1.547-1.422,1.563l-5.391-4.922c9.066-13.445,6.633-33.148-5.625-43.9C50.129,4.391,27.23,5.407,15.156,19.228c-19.91,21.7-4.223,57.293,25.188,57.168a33.679,33.679,0,0,0,21.238-7.359L67,73.974l-1.359,1.484-.062.078a1.561,1.561,0,0,0,.094,2.2L79.523,90.352a5.718,5.718,0,0,0,8.063-.375l4.672-5.125v0A5.736,5.736,0,0,0,91.9,76.77ZM40.359,69.895c-23.832.039-36.531-28.684-20.4-46.273,12.945-14.531,37.4-10.8,45.461,6.875C74.085,48.517,60.417,70.13,40.359,69.895Zm23.613-2.922v0a31.7,31.7,0,0,0,3.219-3.531l5.141,4.672L69.1,71.672Z" fill="#112426"/></g></g></svg>