<svg xmlns="http://www.w3.org/2000/svg" width="135" height="163" viewBox="0 0 135 163"><g transform="translate(-418 -5158)"><g transform="translate(418 5158)" fill="#d4e1c3" stroke="#112426" stroke-width="1" stroke-dasharray="4"><rect width="135" height="163" stroke="none"/><rect x="0.5" y="0.5" width="134" height="162" fill="none"/></g><g transform="translate(451.04 5188.115)"><path d="M51.385,1.5H17.077a8.578,8.578,0,0,0-1.715,16.982V47.815A15.451,15.451,0,0,0,29.085,63.151v22.4a8.545,8.545,0,0,0-3.431,6.862v5.146H23.939a1.715,1.715,0,0,0,0,3.431H44.523a1.715,1.715,0,0,0,0-3.431H42.808V92.415a8.545,8.545,0,0,0-3.431-6.862v-22.4A15.451,15.451,0,0,0,53.1,47.815V18.482A8.578,8.578,0,0,0,51.385,1.5ZM25.654,18.654H42.808V44.385a8.577,8.577,0,1,1-17.154,0ZM49.669,47.815A12.021,12.021,0,0,1,37.662,59.823a1.7,1.7,0,0,0-1.715,1.715V84.01a8.665,8.665,0,0,0-3.431,0V61.538A1.7,1.7,0,0,0,30.8,59.823,12.021,12.021,0,0,1,18.792,47.815V18.654h3.431V44.385a12.008,12.008,0,1,0,24.015,0V18.654h3.431Z" transform="translate(0 0)"/></g></g></svg>