<svg xmlns="http://www.w3.org/2000/svg" width="135" height="163" viewBox="0 0 135 163"><g transform="translate(13515 -3927)"><g transform="translate(-13515 3927)" fill="#d4e1c3" stroke="#112426" stroke-width="1" stroke-dasharray="4"><rect width="135" height="163" stroke="none"/><rect x="0.5" y="0.5" width="134" height="162" fill="none"/></g><path d="M61.943,11.8a2.721,2.721,0,0,0-3.835,0L24.095,45.817a2.721,2.721,0,0,1-3.835,0L11.882,37.44a2.721,2.721,0,0,0-3.835,0L2.909,42.581a2.721,2.721,0,0,0,0,3.835L20.26,63.763a2.721,2.721,0,0,0,3.835,0L67.082,20.774a2.72,2.72,0,0,0,0-3.836Z" transform="translate(-13480.994 3950.446)" fill="#112426"/><path d="M48.23,24.24a10.541,10.541,0,0,1-3-.394,7.659,7.659,0,0,1-2.36-1.147,9.129,9.129,0,0,1-1.844-1.8L43.5,18.1a6.643,6.643,0,0,0,2.4,2.156,5.919,5.919,0,0,0,2.506.559,3.769,3.769,0,0,0,1.174-.171,1.851,1.851,0,0,0,.818-.5,1.14,1.14,0,0,0,.294-.794,1.208,1.208,0,0,0-.178-.651,1.746,1.746,0,0,0-.5-.51,3.891,3.891,0,0,0-.747-.4,7.546,7.546,0,0,0-.906-.3q-.479-.128-.992-.231a12.6,12.6,0,0,1-2.407-.765,5.965,5.965,0,0,1-1.718-1.121,4.205,4.205,0,0,1-1.022-1.51,5.192,5.192,0,0,1-.333-1.908,4.294,4.294,0,0,1,.513-2.079A5.189,5.189,0,0,1,43.8,8.244a6.479,6.479,0,0,1,2.022-1.053,7.822,7.822,0,0,1,2.411-.369,10.3,10.3,0,0,1,2.831.343,6.105,6.105,0,0,1,2.044,1,6.3,6.3,0,0,1,1.447,1.558l-2.513,2.434a5.551,5.551,0,0,0-1.094-1.043,4.436,4.436,0,0,0-2.594-.83,3.942,3.942,0,0,0-1.232.171,1.849,1.849,0,0,0-.81.494,1.145,1.145,0,0,0-.293.8,1.062,1.062,0,0,0,.24.69,2.11,2.11,0,0,0,.65.517,4.894,4.894,0,0,0,.937.376q.527.155,1.091.265a13.4,13.4,0,0,1,2.393.691,7.379,7.379,0,0,1,1.855,1.051,4.194,4.194,0,0,1,1.2,1.482,4.506,4.506,0,0,1,.413,1.973,5.058,5.058,0,0,1-.847,2.963A5.319,5.319,0,0,1,51.618,23.6,8.5,8.5,0,0,1,48.23,24.24ZM59.682,24V20.566h2.85V10.633h-2.85V7.2h9.78v3.433h-2.85v9.933h2.85V24ZM75.5,24V7.2h3.646l6.12,9.96-2.6-.024L88.851,7.2h3.5V24h-3.97V18.765q0-2.16.108-3.888t.372-3.432l.474,1.246L84.668,19.92H83.084l-4.557-7.188.457-1.287q.264,1.608.372,3.3t.108,4.02V24Z" transform="translate(-13515 4035)" fill="#112426"/></g></svg>