<svg xmlns="http://www.w3.org/2000/svg" width="135" height="163" viewBox="0 0 135 163"><g transform="translate(-418 -6476)"><g transform="translate(418 6476)" fill="#cbcde7" stroke="#112426" stroke-width="1" stroke-dasharray="4"><rect width="135" height="163" stroke="none"/><rect x="0.5" y="0.5" width="134" height="162" fill="none"/></g><g transform="translate(455.896 6512.117)"><path d="M17.064,34.549v0Zm41.014-2.932V24.45a3.588,3.588,0,0,1,2.195-3.3,39.841,39.841,0,0,0-5.862-11.28c-9-12.167-24.166-10.333-28.666-9a3.488,3.488,0,0,0-2.588,2.351C19.992,3.393,8.719,5.124,2.074,20.577c-5.244,14.181.7,24.181,2.6,26.865-1.231,1.633-2.279,3.942-.346,5.759,2.75,2.584,3.833,7.166,1.5,8.958C3.921,63.624.7,64.742,1.078,69.242c.1,1.257,2.167,5.042,9,3.125a16.166,16.166,0,0,0,8.654-6.021l1.766,1.7a40.16,40.16,0,0,0,5.357-7.7c8.216-15.925,4.365-30.889-1.891-34.2a8.325,8.325,0,0,0-5.953-.963A10.878,10.878,0,0,1,19.83,21.79a7.668,7.668,0,0,1,5.648-2.762,6.1,6.1,0,0,1,4.772,1.606c4.025,3.637,5.12,12.567,5.2,15.7l0,.113.016.113c.031.227,2.965,23.07-14.1,36.047l2.421,3.184c18.555-14.106,15.918-37.7,15.66-39.673C39.4,34.769,38.83,23,32.938,17.672a10.031,10.031,0,0,0-7.761-2.632,11.623,11.623,0,0,0-8.442,4.215c-4.76,5.779-3.691,15.358-3.644,15.764l1.986-.235,1.986-.235a26.534,26.534,0,0,1-.025-4.374c.719-.838,2.3-1.956,5.053-.5,3.666,1.942,6.62,11.906,2.408,23.77.272-4.228-1.633-7.94-6.713-9.912a10.343,10.343,0,0,0-10.229,1.04,22.369,22.369,0,0,1-2.724-6.158l2.427-.647c-.157-.6-3.474-13.93,7.348-22.948l.07-.058.064-.064a19.213,19.213,0,0,1,19.89-3.539c10.223,3.8,13.8,25.287,12.341,35.723-1.451,10.383-4.231,22.5-18.933,34.872-5.582,4.7-11.138,6.2-16.065,4.35-4.11-1.547-6.274-4.807-6.4-5.631a.49.49,0,0,1,0,.062h-4c0,2.5,3.151,6.648,7.842,8.831,3.8,1.768,11.6,3.526,21.2-4.551C46.4,71.526,49.379,58.553,50.933,47.436c.14-1,.236-2.1.293-3.268,2.367,3.243,6.352.2,6.352.2A18.258,18.258,0,0,0,61.615,35.2,3.585,3.585,0,0,1,58.078,31.617Zm3.584-8.75a1.585,1.585,0,0,0-1.584,1.583v7.167a1.583,1.583,0,0,0,3.167,0V24.45A1.585,1.585,0,0,0,61.662,22.867Z"/></g></g></svg>