<svg xmlns="http://www.w3.org/2000/svg" width="25.466" height="25.272" viewBox="0 0 25.466 25.272"><g transform="translate(-0.833 -1.071)"><path d="M36.558,16.581c-.647-.065-2.071-.065-2.071-.971,0-1.229,1.812-2.847,4.724-4.594.906-.583,2.783-1.488,2.783-2.718,0-.971-.712-1.682-2.2-1.488C38.37,7,36.169,7.974,33.258,10.433c-3.042,2.524-5.889,6.73-5.889,10.872,0,4.206,2.847,8.413,7.442,8.413a6.685,6.685,0,0,0,6.859-6.6C41.67,20.2,39.664,16.84,36.558,16.581Z" transform="translate(-15.695 -3.375)" fill="#112426"/><path d="M11.766,11.386a4.559,4.559,0,0,0-1.744-.512c-.647-.065-2.071-.065-2.071-.971,0-1.229,1.812-2.847,4.724-4.594.906-.583,2.783-1.488,2.783-2.718,0-.971-.712-1.682-2.2-1.488C11.834,1.3,9.633,2.267,6.722,4.726,3.681,7.25.833,11.457.833,15.6c0,4.206,2.847,8.413,7.442,8.413a7.158,7.158,0,0,0,3.04-.674,11.277,11.277,0,0,1-1.39-5.407A13.707,13.707,0,0,1,11.766,11.386Z" transform="translate(0 0)" fill="#112426"/></g></svg>