<svg xmlns="http://www.w3.org/2000/svg" width="55" height="55" viewBox="0 0 55 55"><g transform="translate(-371 -3397)"><rect width="55" height="55" rx="12" transform="translate(371 3397)" fill="#dedede"/><g transform="translate(112 114.578)"><g transform="translate(273 3295.524)"><rect width="13" height="12" rx="1" transform="translate(0 0.898)" fill="#112426"/><rect width="13" height="13" rx="1" transform="translate(0 14.898)" fill="#112426"/><path d="M25.9,22.775l-2.46,2.46V4.663l2.46,2.46a1.073,1.073,0,1,0,1.517-1.517L23.124,1.314a1.073,1.073,0,0,0-1.517,0L17.314,5.606a1.073,1.073,0,1,0,1.517,1.517l2.46-2.461V25.235l-2.46-2.46a1.073,1.073,0,1,0-1.517,1.517l4.292,4.292a1.073,1.073,0,0,0,1.517,0l4.292-4.292A1.073,1.073,0,1,0,25.9,22.775Z" transform="translate(0.168 -1)" fill="#112426"/></g></g></g></svg>