<svg xmlns="http://www.w3.org/2000/svg" width="55" height="55" viewBox="0 0 55 55"><g transform="translate(-371 -11875)"><rect width="55" height="55" rx="12" transform="translate(371 11875)" fill="#112426"/><path d="M38.5,9.936V26.859a4.959,4.959,0,0,1-2.115,4.019V9.936a2.907,2.907,0,0,0-2.962-2.821H16.394L13.856,9.936H29.333a4.243,4.243,0,0,1,4.231,4.231V32.5a4.243,4.243,0,0,1-4.231,4.231H11.353A.379.379,0,0,1,11,36.378V9.971h0V9.936h.035L15.478,5H33.423A5.027,5.027,0,0,1,38.5,9.936Z" transform="translate(373.5 11881.635)" fill="#dedede"/></g></svg>