<svg xmlns="http://www.w3.org/2000/svg" width="55" height="55" viewBox="0 0 55 55"><g transform="translate(-371 -865)"><rect width="55" height="55" rx="12" transform="translate(371 865)" fill="#dedede"/><path d="M24.144,41.766a1.527,1.527,0,0,1,1.119.617l2.993,4a1.553,1.553,0,0,0,2.486,0l2.993-4a1.515,1.515,0,0,1,1.119-.617A12.894,12.894,0,0,0,34.105,16H24.895a12.894,12.894,0,0,0-.75,25.766ZM38.71,26.592a2.3,2.3,0,1,1-2.3,2.3A2.3,2.3,0,0,1,38.71,26.592Zm-9.211,0a2.3,2.3,0,1,1-2.3,2.3A2.3,2.3,0,0,1,29.5,26.592Zm-9.211,0a2.3,2.3,0,1,1-2.3,2.3A2.3,2.3,0,0,1,20.289,26.592Z" transform="translate(368.574 860.711)" fill="#112426"/></g></svg>