<svg xmlns="http://www.w3.org/2000/svg" width="55" height="55" viewBox="0 0 55 55"><g transform="translate(-371 -2711)"><rect width="55" height="55" rx="12" transform="translate(371 2711)" fill="#dedede"/><path d="M4.54,1.621h7.073A3.447,3.447,0,0,1,15.052,5.06v7.073a3.447,3.447,0,0,1-3.439,3.439H4.54A3.447,3.447,0,0,1,1.1,12.132V5.06A3.447,3.447,0,0,1,4.54,1.621ZM32.493,13.528A6.974,6.974,0,1,1,34.537,8.6,6.954,6.954,0,0,1,32.493,13.528ZM8.077,20.75a6.976,6.976,0,1,1-4.932,2.043A6.949,6.949,0,0,1,8.077,20.75Zm15.95,0H31.1a3.447,3.447,0,0,1,3.439,3.439v7.073A3.447,3.447,0,0,1,31.1,34.7H24.026a3.447,3.447,0,0,1-3.439-3.439V24.189a3.447,3.447,0,0,1,3.439-3.439Z" transform="translate(380.81 2720.379)" fill="#112426"/></g></svg>