<svg xmlns="http://www.w3.org/2000/svg" width="55" height="55" viewBox="0 0 55 55"><g transform="translate(-371 -7584)"><rect width="55" height="55" rx="12" transform="translate(371 7584)" fill="#dedede"/><path d="M39.019,24.359a2.4,2.4,0,0,0-2.447.03h0l-5.71,3.426V27.2a6.079,6.079,0,0,0-6.071-6.071H12.322A6.079,6.079,0,0,0,6.25,27.2v10.3a6.079,6.079,0,0,0,6.071,6.071H24.789a6.079,6.079,0,0,0,6.071-6.071v-.619L36.572,40.3a2.428,2.428,0,0,0,3.678-2.083V26.472a2.4,2.4,0,0,0-1.231-2.113Z" transform="translate(375.717 7578.803)" fill="#112426"/></g></svg>