<svg id="Grupo_4828" data-name="Grupo 4828" xmlns="http://www.w3.org/2000/svg" xmlns:xlink="http://www.w3.org/1999/xlink" width="18.499" height="13.985" viewBox="0 0 18.499 13.985">
  <defs>
    <clipPath id="clip-path">
      <rect id="Retângulo_897" data-name="Retângulo 897" width="18.499" height="13.985" fill="#112426"/>
    </clipPath>
  </defs>
  <g id="Grupo_2525" data-name="Grupo 2525" clip-path="url(#clip-path)">
    <path id="Caminho_2457" data-name="Caminho 2457" d="M6.552,9.066c.083-.1.141-.169.207-.235L14.944.649a2.055,2.055,0,1,1,2.91,2.9q-3.295,3.279-6.577,6.571-1.606,1.6-3.213,3.208a2.068,2.068,0,0,1-1.635.653,2.033,2.033,0,0,1-1.354-.624C3.59,11.875,2.1,10.4.625,8.9A2.034,2.034,0,0,1,.874,5.767a2.077,2.077,0,0,1,2.683.265C4.513,7,5.48,7.958,6.442,8.921a1.519,1.519,0,0,1,.11.145" transform="translate(0 0)" fill="#112426"/>
  </g>
</svg>
