<svg xmlns="http://www.w3.org/2000/svg" width="55" height="55" viewBox="0 0 55 55"><g transform="translate(-371 -5099)"><rect width="55" height="55" rx="12" transform="translate(371 5099)" fill="#dedede"/><path d="M38.992,22.723H30.729V14.471a2.079,2.079,0,0,0-2.115-1.892h-3.8A2.089,2.089,0,0,0,22.7,14.471v8.252H14.423a2.075,2.075,0,0,0-1.892,2.119v3.786a2.075,2.075,0,0,0,1.892,2.127h8.263v8.372a2,2,0,0,0,2.119,1.778H28.6a2,2,0,0,0,2.115-1.778V30.759h8.278a2.074,2.074,0,0,0,1.892-2.127V24.845a2.084,2.084,0,0,0-1.892-2.119Z" transform="translate(372 5099.421)" fill="#112426" fill-rule="evenodd"/></g></svg>