<svg xmlns="http://www.w3.org/2000/svg" width="14" height="15.494" viewBox="0 0 14 15.494">
  <g id="icone_share" transform="translate(-1248 -15.213)">
    <path id="Caminho_12" data-name="Caminho 12" d="M1259.667,32.164a2.271,2.271,0,0,0-1.525.6l-5.545-3.227a2.154,2.154,0,0,0,0-1.089l5.483-3.2a2.328,2.328,0,1,0-.747-1.7,2.545,2.545,0,0,0,.07.544l-5.483,3.2a2.333,2.333,0,1,0,0,3.406l5.538,3.236a2.18,2.18,0,0,0-.062.506,2.271,2.271,0,1,0,2.271-2.272Z" transform="translate(0 -6)" fill="#f2f2f2"/>
  </g>
</svg>
