<svg xmlns="http://www.w3.org/2000/svg" width="55" height="55" viewBox="0 0 55 55"><g transform="translate(-371 -10167)"><rect width="55" height="55" rx="12" transform="translate(371 10167)" fill="#dedede"/><g transform="translate(385.265 10173.486)"><ellipse cx="3.924" cy="3.924" rx="3.924" ry="3.924" transform="translate(9.64 29.955)" fill="#112426"/><path d="M0,8.959.377,7.733A10.315,10.315,0,0,1,10.563,0,10.609,10.609,0,0,1,21.314,10.374a10.3,10.3,0,0,1-7.639,9.9v2.075H7.545V18.673a4.008,4.008,0,0,1,3.584-4.055,4.472,4.472,0,0,0,4.15-4.244A4.459,4.459,0,0,0,10.563,6.13,4.262,4.262,0,0,0,6.224,9.337l-.377,1.226Z" transform="translate(2.578 4.079)" fill="#112426"/></g></g></svg>