<svg id="logo_univesp" xmlns="http://www.w3.org/2000/svg" width="154.921" height="54.107" viewBox="0 0 154.921 54.107">
  <path id="Caminho_7" data-name="Caminho 7" d="M198.794,29.2l-7.138,45.3-5.043,0L179.3,29.2h-4.736l9.583,53.9h9.659l9.583-53.9Z" transform="translate(-105.313 -29)" fill="#f2f2f2"/>
  <path id="Caminho_8" data-name="Caminho 8" d="M189.132,64.217l5.06-35.014-5.059,34.979L184.072,29.2H179.3v0h4.769Z" transform="translate(-105.313 -29)" fill="#f2f2f2"/>
  <path id="Caminho_9" data-name="Caminho 9" d="M191.655,74.5l7.138-45.3h-4.6l-5.059,34.979L184.072,29.2H179.3l7.311,45.3Z" transform="translate(-105.313 -29)" fill="#112426"/>
  <path id="Caminho_10" data-name="Caminho 10" d="M110.674,29.316a2.483,2.483,0,0,0-1.1,2.409l-.078,13.936c-.119,3.71,1.34,7.5,4.887,9.119,3.942,1.975,8.279-.04,11.313-2.487l.079-.276.2-20.174a2.216,2.216,0,0,0-1.143-2.172c-.236-.118-.552-.118-.591-.394l.039-.079a44.32,44.32,0,0,0,5.6.079c.078,0,.157,0,.157.078-.157.316-.512.316-.749.514-.867.789-.906,2.013-.906,3.2l-.276,19.5c.078,1.066-.079,2.448.946,3.119.276.2.552.2.828.4a.119.119,0,0,1-.158.118,28.144,28.144,0,0,0-5.164-.078c-.039-.04-.039-.08-.039-.158a3.081,3.081,0,0,0,1.182-2.8c-.157-.157-.236.079-.433.2-3.429,2.526-8.12,4.145-12.417,2.448a8.647,8.647,0,0,1-5.4-7.186,77.752,77.752,0,0,1-.118-8.843c.079-2.764.158-5.645-.039-8.409a2.939,2.939,0,0,0-1.972-1.935c0-.079.079-.118.119-.157a25.22,25.22,0,0,0,4.888-.079h.354Zm27.042,24.99a1.73,1.73,0,0,0,.985,1.225c.277.157.671.118.908.354l-.159.158a35.692,35.692,0,0,0-5.557.04c-.118-.316.709-.355.985-.552A2.013,2.013,0,0,0,135.9,53.6l.236-22.621a3.179,3.179,0,0,0-2.128-1.5c-.158-.079-.079-.158-.079-.237l.236-.079A17.974,17.974,0,0,0,139.214,29c.079.316-.236.474-.236.751a1.953,1.953,0,0,0,.315,1.539l16.634,19.385.118-.08.079-17.884c-.079-1.026-.039-2.092-.985-2.724-.276-.276-.788-.2-1.064-.513l.276-.119a27.079,27.079,0,0,0,5.36-.157l.079.079c.078.2-.236.276-.315.315a2.106,2.106,0,0,0-1.38.869c-.631,1.816-.276,3.474-.433,5.487v.79l-.158,18.95c-.04.2.079.435-.079.513l-.118-.078-8.83-10.462c-3.744-4.264-7.213-8.606-10.879-12.752h-.039c0,3.434-.316,18.042.157,21.4m30.866-24.358c-1.065.71-.828,1.421-.907,2.487,0,0-.079,20.687.237,22.385.118.631.788.947,1.3,1.263l-.2.158a27,27,0,0,0-5.361-.08c-.158-.315.354-.236.473-.394a1.181,1.181,0,0,0,.907-.75l.236-1.145V32.237c-.079-.75-.158-1.7-.828-2.131l-.158-.237c-.354-.277-.906-.158-1.064-.514l.118-.039a25.3,25.3,0,0,0,5.991-.039c.158,0,.237-.079.4,0-.237.394-.788.394-1.143.671m48.312,12.594a32.939,32.939,0,0,0-5.6.158l-.038.158c-.04,3.908-.157,7.974.079,11.922l.157.079c2.68-.2,6.111.2,8.909-.355a3.361,3.361,0,0,0,1.931-1.816.082.082,0,0,1,.157,0l.081.039a11.418,11.418,0,0,1-.908,2.685,1.852,1.852,0,0,1-1.143.711c-4.612.038-8.632-.277-13.324,0a.3.3,0,0,1-.078-.238,2.56,2.56,0,0,0,1.576-1.46l.158-1.026.04-7.067V32.711c-.08-.947,0-2.25-.946-2.921-.158-.237-.591-.158-.591-.553h.156c3.471,0,6.742-.039,10.25-.118.237.039.552.039.709.2a3.987,3.987,0,0,1,.632,2.132c-.159.118-.238-.079-.316-.119a2.317,2.317,0,0,0-2.365-1.065l-5.046.118-.118.039c0,3.672-.119,7.3.038,10.9l.159.039a48.052,48.052,0,0,0,6.346-.277,2.127,2.127,0,0,0,1.34-1.262c.041-.08.119-.08.236-.04a34.7,34.7,0,0,0-.078,4.027.121.121,0,0,1-.158,0s.316-1.066-2.247-1.263m22.233-12.357v.158a8.582,8.582,0,0,1-.078,2.842c-.04.119-.119.039-.159.039a5.446,5.446,0,0,0-3.783-3.039,5.2,5.2,0,0,0-5.677,2.132,5.109,5.109,0,0,0,0,4.539,16.794,16.794,0,0,0,2.6,2.725c2.325,1.855,4.809,3.4,7.1,5.487a6.867,6.867,0,0,1,1.1,6.475,6.741,6.741,0,0,1-4.77,4.54c-2.679.711-5.438-.118-8.119-.276-.08-1.382-.236-2.763-.315-4.225,0-.158.157-.158.277-.118a7.945,7.945,0,0,1,.393,1.263c1.1,2.487,3.822,2.922,6.268,2.764a5,5,0,0,0,3.546-8.29,16.321,16.321,0,0,0-3.073-2.724c-2.76-2.251-7.1-4.422-7.134-8.489a6.417,6.417,0,0,1,2.876-5.764c2.562-1.737,6.189-.947,8.948-.039m19.906,1.737a7.5,7.5,0,0,1,.513,7.225,6.7,6.7,0,0,1-5.716,3.79,13.252,13.252,0,0,1-3.311-.119.227.227,0,0,1-.078-.276l.236-.04c2.168.316,4.532.158,5.952-1.619,1.7-2.092,1.656-5.645.473-7.935a5.217,5.217,0,0,0-3.982-2.961,10.864,10.864,0,0,0-3.587.277l-.078.118-.119,5.685.04,17.647a2.215,2.215,0,0,0,1.34,1.974c.236.079.553.04.63.315-.275.278-.787.08-1.142.12a15.808,15.808,0,0,0-4.927.038.6.6,0,0,1-.276-.038l.078-.2a3.121,3.121,0,0,0,1.814-1.145l.117-.908.12-11.37-.079-10.62a2.941,2.941,0,0,0-1.538-2.329c-.079-.119,0-.237.119-.2,4.532.237,10.365-1.7,13.4,2.567" transform="translate(-105.313 -29)" fill="#f2f2f2"/>
  <path id="Caminho_11" data-name="Caminho 11" d="M184.069,29.2h10.123l-5.058,34.979L184.074,29.2Z" transform="translate(-105.313 -29)" fill="#f2f2f2"/>
</svg>
